<?xml version="1.0" encoding="UTF-8"?>
<svg width="20px" height="13px" viewBox="0 0 20 13" version="1.1" xmlns="http://www.w3.org/2000/svg" xmlns:xlink="http://www.w3.org/1999/xlink">
    <!-- Generator: Sketch 51 (57462) - http://www.bohemiancoding.com/sketch -->
    <title>np_email_1012748_000000</title>
    <desc>Created with Sketch.</desc>
    <defs></defs>
    <g id="Page-1" stroke="none" stroke-width="1" fill="none" fill-rule="evenodd">
        <g id="Strona-Główna" transform="translate(-529.000000, -2738.000000)" fill="#FFFFFF" fill-rule="nonzero">
            <g id="np_email_1012748_000000" transform="translate(529.000000, 2738.000000)">
                <path d="M1.39535235,0 C1.19368143,0 1.00109883,0.0402395036 0.828495183,0.117056969 L9.54937471,7.60144544 C9.76376416,7.78526234 10.2361382,7.78526234 10.4505323,7.60144544 L19.1714118,0.117056969 C18.9988105,0.0402395036 18.8062279,0 18.6045546,0 L1.39535235,0 Z M0.152615392,0.768174652 C0.0563229284,0.959307611 0,1.17513491 0,1.40468362 L0,10.7692411 C0,11.0006112 0.0545066598,11.2210108 0.152615392,11.4130545 L6.64978692,6.34308302 L0.152615392,0.768174652 Z M19.8473846,0.768174652 L13.3502131,6.34289573 L19.8473846,11.4128672 C19.9454957,11.2208212 20,11.0004286 20,10.7690538 L20,1.40449633 C20,1.17495464 19.9436771,0.95914139 19.8473846,0.767987361 L19.8473846,0.768174652 Z M7.37652688,6.96493646 L0.843076494,12.0641721 C1.01204295,12.1364174 1.20009767,12.173913 1.39539886,12.173913 L18.6046011,12.173913 C18.7999116,12.173913 18.9879477,12.1364174 19.1569235,12.0641721 L12.6234731,6.96493646 L11.0537148,8.3110916 C10.450509,8.82869411 9.54935146,8.82869411 8.94616892,8.3110916 L7.37652688,6.96493646 Z" id="Shape"></path>
            </g>
        </g>
    </g>
</svg>