<?xml version="1.0" encoding="UTF-8"?>
<svg width="20px" height="20px" viewBox="0 0 20 20" version="1.1" xmlns="http://www.w3.org/2000/svg" xmlns:xlink="http://www.w3.org/1999/xlink">
    <!-- Generator: Sketch 51 (57462) - http://www.bohemiancoding.com/sketch -->
    <title>np_website_781173_000000</title>
    <desc>Created with Sketch.</desc>
    <defs></defs>
    <g id="Page-1" stroke="none" stroke-width="1" fill="none" fill-rule="evenodd">
        <g id="Strona-Główna" transform="translate(-529.000000, -2782.000000)" fill="#FFFFFF" fill-rule="nonzero">
            <g id="np_website_781173_000000" transform="translate(529.000000, 2782.000000)">
                <path d="M8.05106989,0 C5.37658734,0.537869452 3.09156584,2.1613746 1.63871113,4.39483637 L5.31409359,4.39483637 C5.94390561,2.40352976 6.90865913,0.8433793 8.05106989,0 Z M11.9481802,0 C13.0906409,0.8433793 14.0475702,2.40360569 14.6851565,4.39483637 L18.3517898,4.39483637 C16.9085841,2.16129867 14.6149135,0.537869452 11.9491801,0 L11.9481802,0 Z M10.4952005,0.376711108 L10.4952005,4.39491231 L13.7106289,4.39491231 C12.9939006,2.22465336 11.8690131,0.67234947 10.4962004,0.376711108 L10.4952005,0.376711108 Z M9.49530047,0.38560962 C8.14876012,0.708913456 7.04144586,2.24243621 6.33361664,4.39495179 L9.49530047,4.39495179 L9.49530047,0.38560962 Z M1.05364464,5.41728342 C0.443355664,6.65516782 0.0713178682,8.02664633 4.99950005e-05,9.48889189 L4.49960004,9.48889189 C4.53475152,8.03644188 4.72125787,6.66412809 5.03079692,5.41728342 L1.05364464,5.41728342 Z M6.04914509,5.41728342 C5.73960104,6.65516782 5.56189381,8.04537684 5.52674733,9.48889189 L9.49510049,9.48889189 L9.49510049,5.41728342 L6.04914509,5.41728342 Z M10.4959504,5.41728342 L10.4959504,9.48889189 L14.5170483,9.48889189 C14.4818968,8.04535153 14.3041796,6.65526907 13.9946505,5.41728342 L10.4959504,5.41728342 Z M14.9692531,5.41728342 C15.269998,6.66407747 15.4653035,8.03651782 15.50045,9.48889189 L20,9.48889189 C19.9287171,8.0265704 19.5566943,6.65526907 18.9464054,5.41728342 L14.9692531,5.41728342 Z M0,10.5112235 C0.0712828717,11.973545 0.443305669,13.3537054 1.05359464,14.582832 L5.02194781,14.582832 C4.72120288,13.3449476 4.53469653,11.9646101 4.49955004,10.5112235 L0,10.5112235 Z M5.52669733,10.5112235 C5.56184882,11.9636735 5.73956604,13.3448464 6.04909509,14.582832 L9.4950005,14.582832 L9.4950005,10.5112235 L5.52669733,10.5112235 Z M10.4959504,10.5112235 L10.4959504,14.582832 L13.9946005,14.582832 C14.3041446,13.3449476 14.4906509,11.9635976 14.5169983,10.5112235 L10.4959504,10.5112235 Z M15.50045,10.5112235 C15.4652985,11.9636735 15.2787921,13.3448464 14.9780522,14.582832 L18.9464054,14.582832 C19.5576692,13.3538319 19.929707,11.9727097 20,10.5112235 L15.50045,10.5112235 Z M1.63858614,15.6051636 C3.08276672,17.8387013 5.36771323,19.4621305 8.03344666,20 C6.89976002,19.1566207 5.94380562,17.5963943 5.3149685,15.6051636 L1.63958604,15.6051636 L1.63858614,15.6051636 Z M6.33336666,15.6051636 C7.04227077,17.7665382 8.13983602,19.308996 9.49505049,19.6233648 L9.49505049,15.6051636 L6.33336666,15.6051636 Z M10.4959504,15.6051636 L10.4959504,19.6322239 C11.8776372,19.3365855 13.0024498,17.7852687 13.7113789,15.6051636 L10.4959504,15.6051636 Z M14.6860314,15.6051636 C14.0571943,17.5964702 13.10024,19.1566207 11.9665533,20 C14.6322868,19.4621305 16.9183082,17.8386254 18.3614139,15.6051636 L14.6860314,15.6051636 Z" id="Shape"></path>
            </g>
        </g>
    </g>
</svg>