<?xml version="1.0" encoding="UTF-8"?>
<svg width="20px" height="20px" viewBox="0 0 20 20" version="1.1" xmlns="http://www.w3.org/2000/svg" xmlns:xlink="http://www.w3.org/1999/xlink">
    <!-- Generator: Sketch 51 (57462) - http://www.bohemiancoding.com/sketch -->
    <title>np_phone_1853838_000000</title>
    <desc>Created with Sketch.</desc>
    <defs></defs>
    <g id="Page-1" stroke="none" stroke-width="1" fill="none" fill-rule="evenodd">
        <g id="Strona-Główna" transform="translate(-529.000000, -2686.000000)" fill="#FFFFFF" fill-rule="nonzero">
            <g id="np_phone_1853838_000000" transform="translate(529.000000, 2686.000000)">
                <path d="M1.0979068,2.08849514 L2.91834359,0.261481177 C3.3514578,-0.0871603924 3.87255195,-0.0871603924 4.21881232,0.261481177 L7.77381378,3.74239094 C8.12120026,4.09103251 8.12120026,4.70004682 7.77381378,5.04755823 L6.21281241,6.61419945 C5.08605135,7.74503147 5.25860405,8.26800831 5.69284436,8.96419026 C6.64705272,10.5308315 9.42166899,13.4025531 10.9814576,14.3591367 C11.6751045,14.7938158 12.1950725,14.8809834 13.3229886,13.7501224 L14.8839899,12.1834812 C15.2313764,11.8348396 15.8381983,11.8348396 16.1844587,12.1834812 L19.7394601,15.7513268 C20.0868466,16.0999683 20.0868466,16.7089827 19.7394601,17.0564941 L17.8321695,18.9706757 C17.8321695,18.9706757 16.4448469,20.8848573 12.5435562,19.4925223 C7.68805717,17.7515458 2.22562072,12.3565414 0.490853921,7.48349958 C-0.896468652,3.56791077 1.09767581,2.0885531 1.09767581,2.0885531 L1.0979068,2.08849514 Z" id="Shape"></path>
            </g>
        </g>
    </g>
</svg>