<?xml version="1.0" encoding="UTF-8"?>
<svg width="117px" height="64px" viewBox="0 0 117 64" version="1.1" xmlns="http://www.w3.org/2000/svg" xmlns:xlink="http://www.w3.org/1999/xlink">
    <!-- Generator: Sketch 51 (57462) - http://www.bohemiancoding.com/sketch -->
    <title>np_community_197286_000000</title>
    <desc>Created with Sketch.</desc>
    <defs></defs>
    <g id="Page-1" stroke="none" stroke-width="1" fill="none" fill-rule="evenodd">
        <g id="Strona-Główna" transform="translate(-875.000000, -2093.000000)" fill="#2AA2E3" fill-rule="nonzero">
            <g id="Group-2" transform="translate(0.000000, 1891.000000)">
                <g id="np_community_197286_000000" transform="translate(874.000000, 199.000000)">
                    <path d="M59.2692308,17.1829231 C45.7146154,17.1829231 34.6931154,28.205325 34.6931154,41.7590385 C34.6931154,55.3136538 45.7155173,66.3351538 59.2692308,66.3351538 C72.8229442,66.3351538 83.8453462,55.3127519 83.8453462,41.7590385 C83.8453462,28.2044231 72.8229442,17.1829231 59.2692308,17.1829231 Z M59.2692308,20.3436481 C71.1170212,20.3436481 80.6899038,29.9165308 80.6899038,41.7643212 C80.6899038,53.6121115 71.1170212,63.1849942 59.2692308,63.1849942 C47.4214404,63.1849942 37.8485577,53.6121115 37.8485577,41.7643212 C37.8485577,29.9165308 47.4214404,20.3436481 59.2692308,20.3436481 Z" id="Shape"></path>
                    <path d="M69.8590962,46.5405192 C68.2183692,51.0702346 64.0208192,54.0548269 59.3148423,54.0750558 C54.6140192,54.095188 50.3861904,51.1458673 48.7101596,46.6312269 L45.7506923,47.7334671 C47.8796173,53.4560402 53.2952788,57.260996 59.3297885,57.230846 C65.3644269,57.205681 70.7498096,53.3554113 72.829,47.6127383 L69.8594827,46.5356617 L69.8590962,46.5405192 Z" id="Shape"></path>
                    <path d="M28.0240385,3.33196154 C23.5999769,2.93938019 19.0299327,3.73460577 14.8121538,5.85850577 C3.55821538,11.525675 -1.58996154,24.8233712 2.90895962,36.5908904 C7.408525,48.3581519 20.1163635,54.8251981 32.2768635,51.5396212 L31.4514492,48.489575 C20.8266665,51.3584635 9.78983385,45.7415442 5.85873769,35.4593635 C1.92789923,25.1818212 6.40231385,13.6263827 16.2318838,8.67869038 C26.0614538,3.73099808 38.0043069,7.01270962 43.9234992,16.2886019 L46.5859762,14.5924712 C42.3531223,7.95393077 35.3924665,3.98778846 28.0243992,3.32848269 L28.0240385,3.33196154 Z" id="Shape"></path>
                    <path d="M22.4173636,23.6309152 C21.7924822,24.2442364 20.950436,24.5904536 20.0682093,24.5904536 C19.1894044,24.5904536 18.343962,24.2442195 17.7223913,23.6309152 C17.0975099,23.0175939 16.75,22.1833771 16.75,21.3128115 C16.75,19.505837 18.2336944,18.0384615 20.0682093,18.0384615 C21.9027242,18.0384615 23.3897549,19.505837 23.3897549,21.3128115 C23.3897549,22.1832927 23.038883,23.0175602 22.4173636,23.6309152 Z" id="Shape"></path>
                    <path d="M54.6289021,36.5155305 C54.0040207,37.1288518 53.1619745,37.475069 52.2797478,37.475069 C51.4009428,37.475069 50.5555005,37.1288349 49.9339297,36.5155305 C49.3090484,35.9022093 48.9615385,35.0679925 48.9615385,34.1974269 C48.9615385,32.3904523 50.4452329,30.9230769 52.2797478,30.9230769 C54.1142627,30.9230769 55.6012933,32.3904523 55.6012933,34.1974269 C55.6012933,35.0679081 55.2504215,35.9021755 54.6289021,36.5155305 Z" id="Shape-Copy"></path>
                    <path d="M89.4173636,23.6309152 C88.7924822,24.2442364 87.950436,24.5904536 87.0682093,24.5904536 C86.1894044,24.5904536 85.343962,24.2442195 84.7223913,23.6309152 C84.0975099,23.0175939 83.75,22.1833771 83.75,21.3128115 C83.75,19.505837 85.2336944,18.0384615 87.0682093,18.0384615 C88.9027242,18.0384615 90.3897549,19.505837 90.3897549,21.3128115 C90.3897549,22.1832927 90.038883,23.0175602 89.4173636,23.6309152 Z" id="Shape-Copy-3"></path>
                    <path d="M34.9859087,21.3128115 C34.9859087,23.1230782 33.498878,24.5904536 31.6643631,24.5904536 C29.8331845,24.5904536 28.3461538,23.1230782 28.3461538,21.3128115 C28.3461538,20.4456224 28.6970257,19.6113549 29.3185451,18.998 C29.9400817,18.3846787 30.7854727,18.0384615 31.6643631,18.0384615 C32.5465043,18.0384615 33.3919467,18.3846956 34.0135174,18.998 C34.635054,19.6113212 34.9859087,20.445538 34.9859087,21.3128115 Z" id="Shape"></path>
                    <path d="M68.4859087,34.1974269 C68.4859087,36.0076935 66.998878,37.475069 65.1643631,37.475069 C63.3331845,37.475069 61.8461538,36.0076935 61.8461538,34.1974269 C61.8461538,33.3302378 62.1970257,32.4959703 62.8185451,31.8826153 C63.4400817,31.2692941 64.2854727,30.9230769 65.1643631,30.9230769 C66.0465043,30.9230769 66.8919467,31.269311 67.5135174,31.8826153 C68.135054,32.4959366 68.4859087,33.3301534 68.4859087,34.1974269 Z" id="Shape-Copy-2"></path>
                    <path d="M103.27437,21.3128115 C103.27437,23.1230782 101.78734,24.5904536 99.9528247,24.5904536 C98.121646,24.5904536 96.6346154,23.1230782 96.6346154,21.3128115 C96.6346154,20.4456224 96.9854872,19.6113549 97.6070067,18.998 C98.2285432,18.3846787 99.0739342,18.0384615 99.9528247,18.0384615 C100.834966,18.0384615 101.680408,18.3846956 102.301979,18.998 C102.923516,19.6113212 103.27437,20.445538 103.27437,21.3128115 Z" id="Shape-Copy-4"></path>
                    <path d="M15.3056346,32.6844038 L12.3461673,33.786644 C15.0640481,41.089644 23.0011,44.9851787 30.3240712,42.5693133 L29.3325613,39.569646 C23.5999383,41.4621383 17.4544921,38.4674058 15.3050806,32.6843652 L15.3056346,32.6844038 Z" id="Shape"></path>
                    <path d="M85.2259428,23.1897912 L166.460675,0.666879507" id="Shape"></path>
                    <path d="M90.9421923,3.29717308 C95.3562038,2.98009558 99.8959692,3.85081212 104.069038,6.03515385 C115.187044,11.8533308 120.145173,25.1559231 115.53931,36.8268077 C110.93409,48.5034904 98.2352712,54.8395 86.1366173,51.5036731 L86.9771323,48.4586519 C97.5465112,51.3727654 108.579478,45.8666538 112.600767,35.6696404 C116.622184,25.4726269 112.318916,13.9165442 102.60514,8.83356346 C92.8912996,3.75019615 80.9435246,6.80526731 74.8581208,15.9201019 L72.2308188,14.1685673 C76.5844015,7.64573077 83.5904112,3.8257 90.9431458,3.29717308 L90.9421923,3.29717308 Z" id="Shape"></path>
                    <path d="M103.232827,32.6844038 L106.192294,33.786644 C103.484463,41.0643902 95.5926365,44.9650787 88.2801019,42.5894133 L89.256511,39.584721 C94.979084,41.4419094 101.089226,38.4422163 103.233742,32.6843652 L103.232827,32.6844038 Z" id="Shape"></path>
                </g>
            </g>
        </g>
    </g>
</svg>