<?xml version="1.0" encoding="UTF-8"?>
<svg width="87px" height="67px" viewBox="0 0 87 67" version="1.1" xmlns="http://www.w3.org/2000/svg" xmlns:xlink="http://www.w3.org/1999/xlink">
    <!-- Generator: Sketch 51 (57462) - http://www.bohemiancoding.com/sketch -->
    <title>np_airport_355010_000000</title>
    <desc>Created with Sketch.</desc>
    <defs></defs>
    <g id="Page-1" stroke="none" stroke-width="1" fill="none" fill-rule="evenodd">
        <g id="Strona-Główna" transform="translate(-570.000000, -2091.000000)" fill="#2AA2E3" fill-rule="nonzero">
            <g id="Group-2" transform="translate(0.000000, 1891.000000)">
                <g id="np_airport_355010_000000" transform="translate(570.000000, 200.000000)">
                    <path d="M72.551,63.062 L10.821,63.062 C9.99288,63.062 9.321,63.73388 9.321,64.562 C9.321,65.39012 9.99288,66.062 10.821,66.062 L72.551,66.062 C73.37912,66.062 74.051,65.39012 74.051,64.562 C74.051,63.73388 73.37912,63.062 72.551,63.062 Z" id="Shape"></path>
                    <path d="M86.453,13.848 C84.5389,9.0433 77.8788,8.7113 77.5975,8.6996 C75.9959,8.633193 62.4685,13.4887 62.4685,13.4887 C61.60912,13.83245 59.8474,13.80901 58.9958,13.441825 L30.1718,1.050825 C29.35149,0.695355 28.2812,0.503945 27.1679,0.503945 C26.44524,0.503945 25.3827,0.585977 24.4023,0.976605 L21.8789,1.984405 C20.7539,2.433625 20.0312,3.265605 19.8945,4.273505 C19.75778,5.281305 20.23044,6.277405 21.1953,7.011805 L40.9613,22.070805 L24.2423,28.734905 C23.38292,29.078655 21.6212,29.055215 20.7735,28.68803 L15.3399,26.35213 C14.51959,25.99666 13.4493,25.80526 12.336,25.80526 C11.61334,25.80526 10.5508,25.887291 9.5743,26.27792 L2.2735,29.18812 C1.1446,29.63734 0.4219,30.47332 0.293,31.48112 C0.16409,32.48892 0.65238,33.47722 1.6368,34.19592 L17.1718,45.59092 C18.11711,46.28623 19.496,46.70032 20.8632,46.70032 C21.62101,46.70032 22.3437,46.57141 22.953,46.32923 C22.953,46.32923 81.465,22.86023 82.719,22.18823 C84.7229,21.09443 88.094,17.96163 86.4534,13.84843 L86.453,13.848 Z M77.2382,11.6918 L77.46476,11.695706 C77.492104,11.695706 79.00386,11.781644 80.55856,12.351956 L75.10936,14.527756 L74.15624,12.133256 C75.1289,11.871536 76.34764,11.691846 77.23824,11.691846 L77.2382,11.6918 Z M81.289,19.5356 C80.1367,20.15669 78.1367,21.0864 76.9179,21.5708 L21.8319,43.5318 C21.57799,43.63336 21.23034,43.68805 20.85534,43.68805 C20.12487,43.68805 19.37484,43.48102 18.93734,43.16071 L3.57034,31.89071 L10.67974,29.05481 C11.53911,28.71106 13.30084,28.7384 14.14854,29.101684 L19.58214,31.437584 C20.40245,31.793054 21.47274,31.988364 22.58604,31.984464 C23.3087,31.984464 24.37124,31.902433 25.34774,31.511804 L42.20674,24.789104 C43.33174,24.339884 44.05444,23.507904 44.19504,22.500004 C44.33176,21.492204 43.8591,20.496104 42.89424,19.761704 L23.13224,4.710704 L25.51894,3.761484 C26.37832,3.417734 28.14004,3.441174 28.99164,3.808359 L57.81564,16.203359 C58.63595,16.558829 59.70624,16.750239 60.81954,16.750239 C61.5422,16.750239 62.60474,16.668208 63.58514,16.277579 L72.28044,12.812779 L73.63204,16.199479 C73.78829,16.590099 74.16329,16.828389 74.56173,16.828389 C74.68673,16.828389 74.81173,16.804952 74.93282,16.758076 L82.10082,13.902576 C82.31176,13.816638 82.4641,13.660386 82.57348,13.476796 C83.04614,13.875236 83.43676,14.363516 83.67898,14.965096 C84.72588,17.613496 81.42508,19.461196 81.28838,19.535396 L81.289,19.5356 Z" id="Shape"></path>
                    <path d="M28.785,32.992 L26.3944,33.94512 C25.88268,34.14825 25.63268,34.73028 25.83581,35.24592 C25.99206,35.63654 26.36706,35.87483 26.7655,35.87483 C26.88659,35.87483 27.0155,35.851392 27.13659,35.804518 L29.52719,34.851388 C30.03891,34.648268 30.28891,34.066228 30.08578,33.550588 C29.87875,33.034968 29.30062,32.788868 28.78498,32.991998 L28.785,32.992 Z" id="Shape"></path>
                    <path d="M35.953,30.133 L33.5624,31.08613 C33.05068,31.28925 32.80068,31.87129 33.00381,32.38693 C33.16006,32.77755 33.53506,33.01584 33.9335,33.01584 C34.05459,33.01584 34.1835,32.992403 34.30459,32.945527 L36.69519,31.992407 C37.20691,31.789277 37.45691,31.207247 37.25378,30.691607 C37.04675,30.179887 36.46472,29.925987 35.95298,30.133017 L35.953,30.133 Z" id="Shape"></path>
                    <path d="M43.121,27.277 L40.7304,28.22622 C40.21868,28.42935 39.96868,29.01138 40.17181,29.52702 C40.32806,29.91764 40.70306,30.15593 41.1015,30.15593 C41.22259,30.15593 41.34759,30.132492 41.47259,30.085618 L43.86319,29.136398 C44.37491,28.933278 44.62491,28.351238 44.42178,27.835598 C44.21866,27.323878 43.63272,27.069968 43.12098,27.277008 L43.121,27.277 Z" id="Shape"></path>
                    <path d="M50.289,24.418 L47.8984,25.37112 C47.38668,25.57424 47.13277,26.15628 47.33981,26.67192 C47.49606,27.06254 47.87106,27.30083 48.2695,27.30083 C48.39059,27.30083 48.5195,27.277393 48.64059,27.230518 L51.03119,26.277398 C51.54291,26.074278 51.79681,25.492238 51.58978,24.976598 C51.38275,24.464878 50.80072,24.214878 50.28898,24.418008 L50.289,24.418 Z" id="Shape"></path>
                    <path d="M57.457,21.562 L55.0664,22.51512 C54.55468,22.71824 54.30078,23.30028 54.50781,23.81592 C54.66406,24.20654 55.03906,24.44483 55.4375,24.44483 C55.55859,24.44483 55.6875,24.421393 55.80859,24.374518 L58.19919,23.421398 C58.71091,23.218278 58.96481,22.636238 58.75778,22.120598 C58.55075,21.608878 57.96872,21.354978 57.45698,21.562008 L57.457,21.562 Z" id="Shape"></path>
                    <path d="M64.625,18.703 L62.2344,19.65612 C61.72268,19.85924 61.46878,20.44128 61.67581,20.95692 C61.83206,21.34754 62.20706,21.58583 62.6055,21.58583 C62.72659,21.58583 62.8555,21.562392 62.97659,21.515517 L65.36719,20.562397 C65.87891,20.359277 66.13281,19.777237 65.92578,19.261597 C65.71875,18.749877 65.13672,18.499877 64.62498,18.703007 L64.625,18.703 Z" id="Shape"></path>
                </g>
            </g>
        </g>
    </g>
</svg>