<?xml version="1.0" encoding="UTF-8"?>
<svg width="72px" height="67px" viewBox="0 0 72 67" version="1.1" xmlns="http://www.w3.org/2000/svg" xmlns:xlink="http://www.w3.org/1999/xlink">
    <!-- Generator: Sketch 51 (57462) - http://www.bohemiancoding.com/sketch -->
    <title>price</title>
    <desc>Created with Sketch.</desc>
    <defs></defs>
    <g id="Page-1" stroke="none" stroke-width="1" fill="none" fill-rule="evenodd">
        <g id="Strona-Główna" transform="translate(-257.000000, -2091.000000)" fill="#2AA2E3" fill-rule="nonzero">
            <g id="Group-2" transform="translate(0.000000, 1891.000000)">
                <g id="price" transform="translate(257.000000, 200.000000)">
                    <rect id="Rectangle-path" transform="translate(5.500000, 38.500000) rotate(-134.979744) translate(-5.500000, -38.500000) " x="4" y="37" width="3" height="3"></rect>
                    <rect id="Rectangle-path" transform="translate(25.500000, 59.500000) rotate(-45.000000) translate(-25.500000, -59.500000) " x="24" y="58" width="3" height="3"></rect>
                    <rect id="Rectangle-path" transform="translate(28.500000, 61.500000) rotate(-135.008103) translate(-28.500000, -61.500000) " x="27" y="60" width="3" height="3"></rect>
                    <path d="M47.8157819,10.7135826 C47.7959819,10.7330547 47.776332,10.7526766 47.756832,10.7724483 C45.4139894,13.1125496 45.4144394,16.9061708 47.757882,19.2456729 C50.1013247,21.5851751 53.9003628,21.5847257 56.2432055,19.2446244 C58.5855982,16.9049725 58.5855982,13.11225 56.2432055,10.7725981 C53.9323127,8.43234706 50.1592245,8.40598479 47.8157819,10.7135826 Z M54.5464108,17.5499496 C53.1409152,18.9543398 50.8616723,18.954939 49.4552767,17.5515972 C48.0488811,16.1482554 48.0482811,13.8721126 49.4536267,12.4677223 C50.8589723,11.0633321 53.1385152,11.0627329 54.5447608,12.4660747 C55.2202087,13.1402599 55.5998575,14.0547013 55.6000075,15.0083866 C55.5994075,15.9614727 55.2205087,16.8754648 54.5464108,17.5499496 Z" id="Shape"></path>
                    <path d="M42.3573918,22 L40.6334663,23.7250871 C39.4857316,22.9152546 38.1564852,22.400197 36.7627658,22.2253649 L36.6071014,22.2044548 L36.4525986,22.2253649 C33.5286631,22.4823855 31.0162508,24.4049573 30.0041416,27.1601596 C29.1449379,29.671265 29.7954758,32.4524597 31.6792767,34.3218849 C32.9346116,35.5689429 33.3680615,37.4231211 32.7956462,39.0975302 C32.0947207,40.9684075 30.3838641,42.2719519 28.3940603,42.4512854 C26.405273,42.2702094 24.6957233,40.9663746 23.9947977,39.0963685 C23.4229633,37.4218142 23.8568488,35.567636 25.1123289,34.3207233 L23.4697207,32.6781151 C21.5847581,34.5468142 20.9316064,37.3274282 21.7876155,39.8398404 C22.0061556,40.4836987 22.3193722,41.0912546 22.7169554,41.6427597 L21,43.3573918 L22.6426082,45 L24.3676953,43.2772362 C25.5152849,44.086488 26.8439505,44.6015455 28.2372342,44.7769584 L28.3940603,44.7978686 L28.5497247,44.7769584 C31.4732247,44.5187762 33.9849109,42.5959139 34.9970201,39.8410021 C35.8550621,37.3298967 35.2046694,34.5492828 33.3218849,32.6792767 C32.0664049,31.432364 31.6325193,29.5781858 32.2043538,27.9036315 C32.906441,26.0334802 34.617588,24.7305167 36.6071014,24.5510379 C38.5966147,24.7305167 40.3077618,26.0334802 41.009849,27.9036315 C41.5828451,29.5778953 41.14925,31.4325092 39.8934795,32.6792767 L41.5360877,34.3207233 C43.9467082,31.9189606 44.264281,28.125221 42.2865296,25.3560786 L44,23.6426082 L42.3573918,22 Z" id="Shape"></path>
                    <rect id="Rectangle-path" transform="translate(9.500000, 41.500000) rotate(-45.000000) translate(-9.500000, -41.500000) " x="8" y="40" width="3" height="3"></rect>
                    <rect id="Rectangle-path" transform="translate(12.500000, 45.500000) rotate(-45.000000) translate(-12.500000, -45.500000) " x="11" y="44" width="3" height="3"></rect>
                    <rect id="Rectangle-path" transform="translate(15.500000, 48.500000) rotate(-134.979744) translate(-15.500000, -48.500000) " x="14" y="47" width="3" height="3"></rect>
                    <rect id="Rectangle-path" transform="translate(19.500000, 52.500000) rotate(-135.000000) translate(-19.500000, -52.500000) " x="18" y="51" width="3" height="3"></rect>
                    <rect id="Rectangle-path" transform="translate(22.500000, 55.500000) rotate(-135.000000) translate(-22.500000, -55.500000) " x="21" y="54" width="3" height="3"></rect>
                    <path d="M71.9895208,30.2338904 L70.5413259,11.420716 C70.4080491,9.69119172 69.0531181,8.30712555 67.3284036,8.13886361 L64.9222818,7.90061661 L64.6854776,5.45739362 C64.5223028,3.75333195 63.1748091,2.40440721 61.4725553,2.24105911 L38.4597021,0.0170233654 C37.3978016,-0.0872096972 36.3451233,0.291007416 35.5918715,1.04744164 L1.04581737,35.6289937 C-0.348382646,37.0245255 -0.348680139,39.2872764 1.04537113,40.6829571 C1.04551988,40.683106 1.04566862,40.6832549 1.04581737,40.6834038 L26.2886766,65.9530719 C27.6827279,67.3487526 29.9430782,67.3490504 31.3372782,65.9535186 C31.3374269,65.9533697 31.3375757,65.9532208 31.3377244,65.9530719 L32.1790341,65.1108688 L33.0203437,65.9530719 C34.414395,67.348157 36.6741503,67.348157 38.0682016,65.9530719 L70.9542459,33.0344839 C71.6911356,32.2969605 72.0692489,31.2739875 71.9895208,30.2338904 Z M29.6551051,64.2686656 C29.1907189,64.7341407 28.4371696,64.7345874 27.9721884,64.2695591 C27.9718909,64.2692613 27.9715934,64.2689634 27.9712959,64.2686656 L2.72843666,38.9989976 C2.26345541,38.5341181 2.26300917,37.7797685 2.72754418,37.3142935 C2.72784167,37.3139956 2.72813917,37.3136978 2.72843666,37.3134 L37.2780607,2.73184793 C37.4983541,2.50923589 37.7979294,2.38326279 38.1110406,2.38162484 L38.2300377,2.38162484 L61.2464608,4.62352912 C61.8139283,4.67802812 62.2629937,5.12757043 62.3174349,5.69564062 L64.545061,28.736508 C64.5777852,29.0895603 64.451797,29.43889 64.2011593,29.689496 L29.6551051,64.2686656 Z M69.2692467,31.3500776 L36.3855823,64.2686656 C35.9208985,64.733694 35.1676468,64.733694 34.702963,64.2686656 L33.8616534,63.4264625 L65.8825886,31.3703286 C66.6386666,30.6164258 67.0164824,29.5624806 66.9119137,28.4994523 L65.1543262,10.3200149 L67.0975492,10.5094213 C67.6727515,10.5655582 68.1244944,11.0273107 68.1685233,11.6041662 L69.6143383,30.4161494 C69.6409639,30.7629477 69.5149757,31.1042365 69.2692467,31.3500776 Z" id="Shape"></path>
                </g>
            </g>
        </g>
    </g>
</svg>