<?xml version="1.0" encoding="UTF-8"?>
<svg width="16px" height="17px" viewBox="0 0 16 17" version="1.1" xmlns="http://www.w3.org/2000/svg" xmlns:xlink="http://www.w3.org/1999/xlink">
    <!-- Generator: Sketch 51 (57462) - http://www.bohemiancoding.com/sketch -->
    <title>np_calendar_861179_000000</title>
    <desc>Created with Sketch.</desc>
    <defs></defs>
    <g id="Page-1" stroke="none" stroke-width="1" fill="none" fill-rule="evenodd">
        <g id="Strona-Główna" transform="translate(-655.000000, -1064.000000)" fill="#3AA2E3" fill-rule="nonzero">
            <g id="Group" transform="translate(125.000000, 841.000000)">
                <g id="np_calendar_861179_000000" transform="translate(530.000000, 223.000000)">
                    <path d="M11.4444824,3.54959828 C11.798138,3.54959828 12.08507,3.24895991 12.08507,2.87841063 L12.08507,0.671187654 C12.08507,0.300638374 11.798138,0 11.4444824,0 C11.0908268,0 10.8038948,0.300638374 10.8038948,0.671187654 L10.8038948,2.87841063 C10.8038948,3.24895991 11.091493,3.54959828 11.4444824,3.54959828 Z M4.55551759,3.54959828 C4.90917321,3.54959828 5.19610523,3.24895991 5.19610523,2.87841063 L5.19610523,0.671187654 C5.19610523,0.300638374 4.90917321,0 4.55551759,0 C4.20186197,0 3.91492996,0.300638374 3.91492996,0.671187654 L3.91492996,2.87841063 C3.91492996,3.24895991 4.20119576,3.54959828 4.55551759,3.54959828 Z M15.1458832,1.64020364 L12.8537752,1.64020364 L12.8537752,2.87841063 C12.8537752,3.69292817 12.2218654,4.35502347 11.4444824,4.35502347 C10.6670994,4.35502347 10.0351896,3.69292817 10.0351896,2.87841063 L10.0351896,1.64020364 L5.96481039,1.64020364 L5.96481039,2.87841063 C5.96481039,3.69292817 5.33290058,4.35502347 4.55551759,4.35502347 C3.77813461,4.35502347 3.1462248,3.69292817 3.1462248,2.87841063 L3.1462248,1.64020364 L0.854116843,1.64020364 C0.382353946,1.64020364 0,2.04082213 0,2.53512052 L0,6.20427969 L16,6.20427969 L16,2.53512052 C16,2.04082213 15.6176461,1.64020364 15.1458832,1.64020364 Z M7.10542736e-15,15.7204677 C7.10542736e-15,16.2147661 0.382353946,16.6153846 0.854116843,16.6153846 L15.1458832,16.6153846 C15.6176461,16.6153846 16,16.2147661 16,15.7204677 L16,6.92021319 L7.10542736e-15,6.92021319 L7.10542736e-15,15.7204677 Z M11.8242228,9.04564076 L14.0095661,9.04564076 L14.0095661,11.3353751 L11.8242228,11.3353751 L11.8242228,9.04564076 Z M11.8242228,12.3120873 L14.0095661,12.3120873 L14.0095661,14.6018217 L11.8242228,14.6018217 L11.8242228,12.3120873 Z M8.54646396,9.04564076 L10.731124,9.04564076 L10.731124,11.3353751 L8.54646396,11.3353751 L8.54646396,9.04564076 Z M8.54646396,12.3120873 L10.731124,12.3120873 L10.731124,14.6018217 L8.54646396,14.6018217 L8.54646396,12.3120873 Z M5.26870516,9.04564076 L7.45404851,9.04564076 L7.45404851,11.3353751 L5.26870516,11.3353751 L5.26870516,9.04564076 Z M5.26870516,12.3120873 L7.45404851,12.3120873 L7.45404851,14.6018217 L5.26870516,14.6018217 L5.26870516,12.3120873 Z M1.99043389,9.04564076 L4.17577725,9.04564076 L4.17577725,11.3353751 L1.99043389,11.3353751 L1.99043389,9.04564076 Z M1.99043389,12.3120873 L4.17577725,12.3120873 L4.17577725,14.6018217 L1.99043389,14.6018217 L1.99043389,12.3120873 Z" id="Shape"></path>
                </g>
            </g>
        </g>
    </g>
</svg>