<?xml version="1.0" encoding="UTF-8"?>
<svg width="11px" height="17px" viewBox="0 0 11 17" version="1.1" xmlns="http://www.w3.org/2000/svg" xmlns:xlink="http://www.w3.org/1999/xlink">
    <!-- Generator: Sketch 51 (57462) - http://www.bohemiancoding.com/sketch -->
    <title>np_map-marker_888711_000000</title>
    <desc>Created with Sketch.</desc>
    <defs></defs>
    <g id="Page-1" stroke="none" stroke-width="1" fill="none" fill-rule="evenodd">
        <g id="Strona-Główna" transform="translate(-686.000000, -1064.000000)" fill="#3AA2E3" fill-rule="nonzero">
            <g id="Group" transform="translate(125.000000, 841.000000)">
                <g id="np_map-marker_888711_000000" transform="translate(561.000000, 223.000000)">
                    <path d="M5.46428571,0 C2.4345851,0 0,2.60273295 0,5.84397312 C0,9.08419332 5.46428571,17 5.46428571,17 C5.46428571,17 10.9285714,9.08419332 10.9285714,5.84397312 C10.9285714,2.60273295 8.49398632,0 5.46428571,0 Z M5.46428571,8.49949001 C4.07377545,8.49949001 2.98034608,7.33110338 2.98034608,5.84295314 C2.98034608,4.35582288 4.07282174,3.18641627 5.46428571,3.18641627 C6.85479598,3.18641627 7.94822535,4.3548029 7.94822535,5.84295314 C7.94822535,7.33107788 6.85481982,8.49949001 5.46428571,8.49949001 Z" id="Shape"></path>
                </g>
            </g>
        </g>
    </g>
</svg>