<?xml version="1.0" encoding="UTF-8"?>
<svg width="21px" height="17px" viewBox="0 0 21 17" version="1.1" xmlns="http://www.w3.org/2000/svg" xmlns:xlink="http://www.w3.org/1999/xlink">
    <!-- Generator: Sketch 51 (57462) - http://www.bohemiancoding.com/sketch -->
    <title>np_map_871472_000000</title>
    <desc>Created with Sketch.</desc>
    <defs></defs>
    <g id="Page-1" stroke="none" stroke-width="1" fill="none" fill-rule="evenodd">
        <g id="Strona-Główna" transform="translate(-743.000000, -1064.000000)" fill="#3AA2E3" fill-rule="nonzero">
            <g id="Group" transform="translate(125.000000, 841.000000)">
                <g id="np_map_871472_000000" transform="translate(618.076923, 223.000000)">
                    <path d="M14.0160131,3.97342977e-16 C12.4179129,3.97342977e-16 11.1292962,1.33948816 11.1292962,2.99871053 C11.1292962,3.37966711 11.2345037,3.86635921 11.3588268,4.20101316 L14.0229578,9.84210526 L16.6870887,4.20101316 C16.8122933,3.86548684 16.9166193,3.37966711 16.9166193,2.99871053 C16.9166193,1.33942105 15.6141355,0 14.0161021,0 L14.0160131,3.97342977e-16 Z M6.67757774,0.894736842 L0,2.68421053 L0,17 L6.67757774,15.2105263 L6.67757774,0.894736842 Z M7.12274959,0.894736842 L7.12274959,15.2105263 L13.8003273,17 L13.8003273,10.2615132 L10.9554566,4.32694737 C10.8119933,3.94599079 10.6911358,3.39026974 10.6911358,2.95688158 C10.6911358,2.58464868 10.7511294,2.22903553 10.8580753,1.89438158 L7.12274959,0.894736842 Z M20.9230769,0.894736842 L17.1947627,1.89433684 C17.3034469,2.22986316 17.3686579,2.58373158 17.3686579,2.95683684 C17.3686579,3.390225 17.2486708,3.94594605 17.1043372,4.32690263 L14.2454435,10.2894289 L14.2454435,16.9999553 L20.9230213,15.2104816 L20.9230769,0.894736842 Z M14.0229133,1.56578947 C14.7602291,1.56578947 15.3584288,2.16694079 15.3584288,2.90789474 C15.3584288,3.64884868 14.7602291,4.25 14.0229133,4.25 C13.2855974,4.25 12.6873977,3.64884868 12.6873977,2.90789474 C12.6873977,2.16694079 13.2855974,1.56578947 14.0229133,1.56578947 Z" id="Shape"></path>
                </g>
            </g>
        </g>
    </g>
</svg>