<?xml version="1.0" encoding="UTF-8"?>
<svg width="17px" height="18px" viewBox="0 0 17 18" version="1.1" xmlns="http://www.w3.org/2000/svg" xmlns:xlink="http://www.w3.org/1999/xlink">
    <!-- Generator: Sketch 51 (57462) - http://www.bohemiancoding.com/sketch -->
    <title>np_plane_392305_000000</title>
    <desc>Created with Sketch.</desc>
    <defs></defs>
    <g id="Page-1" stroke="none" stroke-width="1" fill="none" fill-rule="evenodd">
        <g id="Strona-Główna" transform="translate(-712.000000, -1064.000000)" fill="#3AA2E3" fill-rule="nonzero">
            <g id="Group" transform="translate(125.000000, 841.000000)">
                <g id="np_plane_392305_000000" transform="translate(594.838192, 231.838192) scale(-1, 1) translate(-594.838192, -231.838192) translate(586.338192, 223.338192)">
                    <path d="M3.79545645,0.173723464 L5.55255759,0.173723464 L10.0418235,7.2224283 L12.6444222,7.2224283 C12.6444222,7.2224283 16.331437,7.2224283 16.331437,8.45848918 C16.331437,9.69455006 12.6444222,9.69455006 12.6444222,9.69455006 L10.0418235,9.69455006 L5.55255759,16.7432549 L3.79545645,16.7432549 L5.9864108,9.69455006 L3.88281701,9.69455006 L1.90883265,11.4516512 L0.151731505,11.4516512 L1.56147247,8.45844581 L0.151731505,5.46524041 L1.90883265,5.46524041 L3.88281701,7.22234155 L5.9864108,7.22234155 L3.79545645,0.173723464 Z" id="Shape"></path>
                </g>
            </g>
        </g>
    </g>
</svg>