<?xml version="1.0" encoding="UTF-8"?>
<svg width="17px" height="17px" viewBox="0 0 17 17" version="1.1" xmlns="http://www.w3.org/2000/svg" xmlns:xlink="http://www.w3.org/1999/xlink">
    <!-- Generator: Sketch 51 (57462) - http://www.bohemiancoding.com/sketch -->
    <title>np_tag_888732_000000</title>
    <desc>Created with Sketch.</desc>
    <defs></defs>
    <g id="Page-1" stroke="none" stroke-width="1" fill="none" fill-rule="evenodd">
        <g id="Strona-Główna" transform="translate(-779.000000, -1064.000000)" fill="#3AA2E3" fill-rule="nonzero">
            <g id="Group" transform="translate(125.000000, 841.000000)">
                <g id="np_tag_888732_000000" transform="translate(654.000000, 223.000000)">
                    <path d="M16.5064414,8.71953485 L8.28046515,0.493558577 C8.00591496,0.164519526 7.56789818,0 7.12882847,0 L1.64519526,0 C0.712566969,0 0,0.712566969 0,1.64519526 L0,7.12882847 C0,7.56789818 0.164519526,8.00591496 0.493558577,8.28046515 L8.71953485,16.5064414 C9.04857391,16.8354805 9.48764362,17 9.87117153,17 C10.2546995,17 10.6937692,16.8354805 11.0228082,16.5064414 L16.5064414,11.0228082 C17.1645195,10.419219 17.1645195,9.32312409 16.5064414,8.71953485 Z M3.83843795,4.93558577 C3.23484872,4.93558577 2.74129014,4.44202719 2.74129014,3.83843795 C2.74129014,3.23484872 3.23484872,2.74129014 3.83843795,2.74129014 C4.44202719,2.74129014 4.93558577,3.23484872 4.93558577,3.83843795 C4.93558577,4.44202719 4.44202719,4.93558577 3.83843795,4.93558577 Z" id="Shape"></path>
                </g>
            </g>
        </g>
    </g>
</svg>